<svg width="766" height="897" viewBox="0 0 766 897" fill="none" xmlns="http://www.w3.org/2000/svg">
<rect x="7.5" y="889.5" width="557" height="122.684" transform="rotate(-90 7.5 889.5)" fill="white" stroke="black" stroke-width="15"/>
<rect x="8.5" y="769.5" width="379" height="120" fill="white" stroke="black" stroke-width="15"/>
<rect x="-0.0896649" y="-10.6086" width="295.611" height="113.761" transform="matrix(-0.712902 -0.701263 0.700947 -0.713213 658.589 726.321)" fill="white" stroke="black" stroke-width="15"/>
<rect x="7.5" y="348.398" width="379.447" height="120.057" fill="#FFBA2F" stroke="black" stroke-width="15"/>
<rect x="7.5" y="567.255" width="379.447" height="120.057" fill="#FFBA2F" stroke="black" stroke-width="15"/>
<mask id="path-6-inside-1_35_21" fill="white">
<path d="M0.339844 347.406C0.33985 278.696 22.7905 211.528 64.8527 154.398C106.915 97.267 166.699 52.7391 236.646 26.4447C306.593 0.150358 383.561 -6.72944 457.816 6.67533C532.071 20.0801 600.279 53.1674 653.814 101.753C707.349 150.339 743.807 212.241 758.577 279.631C773.347 347.021 765.767 416.873 736.794 480.353C707.821 543.833 658.757 598.091 595.806 636.264C532.856 674.438 458.846 694.813 383.136 694.813L383.136 560.433C429.561 560.433 474.943 547.939 513.544 524.532C552.144 501.124 582.23 467.854 599.996 428.928C617.762 390.003 622.41 347.17 613.353 305.847C604.296 264.524 581.941 226.566 549.114 196.774C516.286 166.981 474.462 146.693 428.929 138.473C383.396 130.253 336.201 134.472 293.31 150.595C250.419 166.719 213.759 194.023 187.967 229.055C162.175 264.087 148.408 305.274 148.408 347.406L0.339844 347.406Z"/>
</mask>
<path d="M0.339844 347.406C0.33985 278.696 22.7905 211.528 64.8527 154.398C106.915 97.267 166.699 52.7391 236.646 26.4447C306.593 0.150358 383.561 -6.72944 457.816 6.67533C532.071 20.0801 600.279 53.1674 653.814 101.753C707.349 150.339 743.807 212.241 758.577 279.631C773.347 347.021 765.767 416.873 736.794 480.353C707.821 543.833 658.757 598.091 595.806 636.264C532.856 674.438 458.846 694.813 383.136 694.813L383.136 560.433C429.561 560.433 474.943 547.939 513.544 524.532C552.144 501.124 582.23 467.854 599.996 428.928C617.762 390.003 622.41 347.17 613.353 305.847C604.296 264.524 581.941 226.566 549.114 196.774C516.286 166.981 474.462 146.693 428.929 138.473C383.396 130.253 336.201 134.472 293.31 150.595C250.419 166.719 213.759 194.023 187.967 229.055C162.175 264.087 148.408 305.274 148.408 347.406L0.339844 347.406Z" fill="white" stroke="black" stroke-width="30" mask="url(#path-6-inside-1_35_21)"/>
<rect x="-0.0888759" y="-10.6086" width="224.818" height="83.5305" transform="matrix(-0.71285 -0.701316 0.701 -0.713161 645.372 692.206)" fill="white" stroke="white" stroke-width="15"/>
<rect x="7.50333" y="7.5" width="27.2122" height="90" transform="matrix(1 0 0.000443696 1 115.997 777)" fill="white" stroke="white" stroke-width="15"/>
<rect y="682" width="15" height="206" fill="black"/>
<rect x="123" y="685" width="15" height="70" fill="black"/>
</svg>
