<svg width="16" height="16" viewBox="0 0 16 16" fill="none" xmlns="http://www.w3.org/2000/svg">
<path fill-rule="evenodd" clip-rule="evenodd" d="M11.5 11.5C11.5 11.3674 11.4473 11.2402 11.3536 11.1464C11.2598 11.0527 11.1326 11 11 11H1C0.867392 11 0.740214 11.0527 0.646446 11.1464C0.552678 11.2402 0.5 11.3674 0.5 11.5C0.5 11.6326 0.552678 11.7598 0.646446 11.8536C0.740214 11.9473 0.867392 12 1 12H11C11.1326 12 11.2598 11.9473 11.3536 11.8536C11.4473 11.7598 11.5 11.6326 11.5 11.5ZM13.5 7.5C13.5 7.36739 13.4473 7.24021 13.3536 7.14645C13.2598 7.05268 13.1326 7 13 7H3C2.86739 7 2.74021 7.05268 2.64645 7.14645C2.55268 7.24021 2.5 7.36739 2.5 7.5C2.5 7.63261 2.55268 7.75979 2.64645 7.85355C2.74021 7.94732 2.86739 8 3 8H13C13.1326 8 13.2598 7.94732 13.3536 7.85355C13.4473 7.75979 13.5 7.63261 13.5 7.5ZM15.5 3.5C15.5 3.36739 15.4473 3.24021 15.3536 3.14645C15.2598 3.05268 15.1326 3 15 3H5C4.86739 3 4.74021 3.05268 4.64645 3.14645C4.55268 3.24021 4.5 3.36739 4.5 3.5C4.5 3.63261 4.55268 3.75979 4.64645 3.85355C4.74021 3.94732 4.86739 4 5 4H15C15.1326 4 15.2598 3.94732 15.3536 3.85355C15.4473 3.75979 15.5 3.63261 15.5 3.5Z" fill="black"/>
</svg>
